<?xml version="1.0" encoding="utf-8"?>
<!-- Generator: Adobe Illustrator 25.4.1, SVG Export Plug-In . SVG Version: 6.00 Build 0)  -->
<svg version="1.1" id="Layer_1" xmlns="http://www.w3.org/2000/svg" xmlns:xlink="http://www.w3.org/1999/xlink" x="0px" y="0px"
	 viewBox="0 0 505.6 169.8" style="enable-background:new 0 0 505.6 169.8;" xml:space="preserve">
<style type="text/css">
	.st0{fill:#333F48;}
	.st1{fill:#FC7632;}
	.st2{fill:#FFFFFF;}
</style>
<g>
	<g>
		<path class="st2" d="M224.4,118.6v-2.5h16.6v2.5H224.4z M231.3,136.4v-19.8h2.8v19.8H231.3z"/>
		<path class="st2" d="M244.2,136.4v-20.4h2.8v20.4H244.2z M246.1,118.6v-2.5h11.5v2.5H246.1z M246.1,127.2v-2.4h10.7v2.4H246.1z
			 M246.1,136.4v-2.5h11.7v2.5H246.1z"/>
		<path class="st2" d="M270.3,136.7c-1.5,0-2.8-0.3-4.1-0.8c-1.3-0.5-2.3-1.3-3.3-2.2c-0.9-1-1.6-2.1-2.2-3.3
			c-0.5-1.3-0.8-2.6-0.8-4.1c0-1.5,0.3-2.8,0.8-4.1s1.2-2.4,2.2-3.3c0.9-0.9,2-1.7,3.3-2.2c1.2-0.5,2.6-0.8,4.1-0.8
			c1.6,0,3,0.3,4.2,0.8c1.2,0.5,2.3,1.3,3.2,2.2l-1.9,1.9c-0.6-0.7-1.4-1.3-2.4-1.7c-0.9-0.4-2-0.6-3.2-0.6c-1.1,0-2.1,0.2-3,0.6
			s-1.7,0.9-2.3,1.6c-0.7,0.7-1.2,1.5-1.5,2.5c-0.4,1-0.5,2-0.5,3.1s0.2,2.2,0.5,3.1c0.4,1,0.9,1.8,1.5,2.5c0.7,0.7,1.4,1.2,2.3,1.6
			c0.9,0.4,1.9,0.6,3,0.6c1.3,0,2.4-0.2,3.3-0.6c0.9-0.4,1.7-1,2.4-1.7l1.9,1.9c-0.9,1-2,1.7-3.3,2.3
			C273.3,136.5,271.9,136.7,270.3,136.7z"/>
		<path class="st2" d="M281.3,136.4v-20.4h2.8v20.4H281.3z M283.1,127.2v-2.5h11.9v2.5H283.1z M294.4,136.4v-20.4h2.8v20.4H294.4z"
			/>
		<path class="st2" d="M302,136.4v-20.4h1.9l0.8,3.2v17.2H302z M316,136.4l-12.5-16.7l0.4-3.7l12.5,16.7L316,136.4z M316,136.4
			l-0.8-3v-17.3h2.8v20.4H316z"/>
		<path class="st2" d="M332.1,136.7c-1.4,0-2.8-0.3-4-0.8c-1.3-0.5-2.3-1.3-3.3-2.3s-1.7-2.1-2.2-3.4c-0.5-1.3-0.8-2.6-0.8-4.1
			c0-1.5,0.3-2.8,0.8-4.1c0.5-1.3,1.2-2.4,2.2-3.3c0.9-1,2-1.7,3.3-2.2c1.2-0.5,2.6-0.8,4-0.8s2.8,0.3,4,0.8
			c1.2,0.5,2.3,1.3,3.3,2.2s1.7,2.1,2.2,3.3c0.5,1.3,0.8,2.6,0.8,4.1c0,1.4-0.3,2.8-0.8,4.1c-0.5,1.3-1.3,2.4-2.2,3.3
			s-2,1.7-3.3,2.2C334.8,136.5,333.5,136.7,332.1,136.7z M332,134.1c1.5,0,2.8-0.3,3.9-1s2-1.6,2.6-2.8c0.6-1.2,1-2.5,1-4.1
			c0-1.1-0.2-2.2-0.6-3.1c-0.4-0.9-0.9-1.8-1.6-2.5c-0.7-0.7-1.4-1.2-2.3-1.6s-1.9-0.6-3-0.6c-1.4,0-2.7,0.3-3.8,1
			c-1.1,0.7-2,1.6-2.6,2.8c-0.6,1.2-1,2.5-1,4c0,1.1,0.2,2.2,0.5,3.2c0.4,1,0.9,1.8,1.5,2.5c0.7,0.7,1.4,1.2,2.3,1.6
			C329.9,133.9,330.9,134.1,332,134.1z"/>
		<path class="st2" d="M346.1,136.4v-20.4h2.8v20.4H346.1z M348,136.4v-2.5h10.9v2.5H348z"/>
		<path class="st2" d="M369.8,136.7c-1.4,0-2.8-0.3-4-0.8c-1.3-0.5-2.3-1.3-3.3-2.3s-1.7-2.1-2.2-3.4c-0.5-1.3-0.8-2.6-0.8-4.1
			c0-1.5,0.3-2.8,0.8-4.1c0.5-1.3,1.2-2.4,2.2-3.3c0.9-1,2-1.7,3.3-2.2c1.2-0.5,2.6-0.8,4-0.8s2.8,0.3,4,0.8
			c1.2,0.5,2.3,1.3,3.3,2.2s1.7,2.1,2.2,3.3c0.5,1.3,0.8,2.6,0.8,4.1c0,1.4-0.3,2.8-0.8,4.1c-0.5,1.3-1.3,2.4-2.2,3.3
			s-2,1.7-3.3,2.2C372.5,136.5,371.2,136.7,369.8,136.7z M369.7,134.1c1.5,0,2.8-0.3,3.9-1s2-1.6,2.6-2.8c0.6-1.2,1-2.5,1-4.1
			c0-1.1-0.2-2.2-0.6-3.1c-0.4-0.9-0.9-1.8-1.6-2.5c-0.7-0.7-1.4-1.2-2.3-1.6s-1.9-0.6-3-0.6c-1.4,0-2.7,0.3-3.8,1
			c-1.1,0.7-2,1.6-2.6,2.8c-0.6,1.2-1,2.5-1,4c0,1.1,0.2,2.2,0.5,3.2c0.4,1,0.9,1.8,1.5,2.5c0.7,0.7,1.4,1.2,2.3,1.6
			C367.6,133.9,368.6,134.1,369.7,134.1z"/>
		<path class="st2" d="M393.2,136.7c-1.4,0-2.8-0.3-4-0.8c-1.2-0.5-2.3-1.3-3.3-2.2c-0.9-1-1.7-2.1-2.2-3.3
			c-0.5-1.3-0.8-2.6-0.8-4.1c0-1.5,0.3-2.8,0.8-4.1c0.5-1.3,1.3-2.4,2.2-3.3s2-1.7,3.3-2.2s2.6-0.8,4.1-0.8c1.6,0,3.1,0.3,4.5,0.9
			c1.4,0.6,2.5,1.5,3.4,2.7l-1.9,1.9c-0.6-0.9-1.5-1.7-2.6-2.2s-2.2-0.7-3.5-0.7c-1.5,0-2.8,0.3-3.9,1c-1.1,0.7-2,1.6-2.7,2.8
			c-0.6,1.2-1,2.5-1,4c0,1.5,0.3,2.9,1,4.1c0.6,1.2,1.5,2.1,2.6,2.8c1.1,0.7,2.3,1,3.8,1c1.4,0,2.7-0.3,3.7-0.8
			c1-0.5,1.9-1.4,2.4-2.4c0.6-1.1,0.9-2.4,0.9-3.9l1.7,1.2H393v-2.5h10v0.4c0,2.4-0.4,4.3-1.2,5.9s-2,2.8-3.5,3.6
			C396.8,136.3,395.1,136.7,393.2,136.7z"/>
		<path class="st2" d="M406.6,136.4v-20.4h2.8v20.4H406.6z"/>
		<path class="st2" d="M414.2,136.4v-20.4h2.8v20.4H414.2z M416.1,118.6v-2.5h11.5v2.5H416.1z M416.1,127.2v-2.4h10.7v2.4H416.1z
			 M416.1,136.4v-2.5h11.7v2.5H416.1z"/>
		<path class="st2" d="M436.6,136.7c-1.6,0-3-0.3-4.1-0.9c-1.1-0.6-2.1-1.4-3-2.6l1.9-1.9c0.6,0.9,1.4,1.6,2.2,2
			c0.8,0.5,1.9,0.7,3.1,0.7c1.2,0,2.2-0.3,2.9-0.8c0.7-0.5,1.1-1.3,1.1-2.2c0-0.8-0.2-1.4-0.5-1.8c-0.4-0.5-0.8-0.9-1.4-1.2
			c-0.6-0.3-1.2-0.6-2-0.8c-0.7-0.2-1.4-0.5-2.1-0.8c-0.7-0.3-1.3-0.6-1.9-1.1c-0.6-0.4-1.1-1-1.4-1.7c-0.4-0.7-0.5-1.5-0.5-2.6
			c0-1.2,0.3-2.1,0.8-2.9c0.6-0.8,1.3-1.4,2.3-1.9s2.1-0.7,3.3-0.7c1.3,0,2.5,0.3,3.6,0.8c1.1,0.5,1.9,1.2,2.6,2l-1.9,1.9
			c-0.6-0.7-1.3-1.2-2-1.6c-0.7-0.4-1.5-0.5-2.4-0.5c-1.1,0-2,0.2-2.6,0.7c-0.6,0.5-1,1.1-1,2c0,0.7,0.2,1.2,0.5,1.7
			c0.4,0.4,0.8,0.8,1.4,1.1c0.6,0.3,1.2,0.6,2,0.8c0.7,0.2,1.4,0.5,2.1,0.8c0.7,0.3,1.3,0.7,1.9,1.1c0.6,0.5,1.1,1,1.4,1.7
			c0.4,0.7,0.5,1.6,0.5,2.7c0,1.8-0.6,3.2-1.9,4.2C440.4,136.2,438.7,136.7,436.6,136.7z"/>
	</g>
	<g>
		<path class="st2" d="M238.5,106.2c-3.1,0-5.7-0.6-7.8-1.7c-2.1-1.1-4.1-2.7-5.8-4.9l4.3-4.3c1.1,1.6,2.3,2.8,3.8,3.6
			c1.5,0.9,3.4,1.3,5.6,1.3c2.1,0,3.8-0.4,5.1-1.3c1.3-0.9,1.9-2.1,1.9-3.7c0-1.3-0.3-2.3-1-3.2c-0.7-0.8-1.5-1.5-2.6-2
			c-1.1-0.5-2.3-1-3.6-1.4c-1.3-0.4-2.6-0.9-3.9-1.4c-1.3-0.5-2.5-1.2-3.6-2c-1.1-0.8-2-1.9-2.6-3.2c-0.7-1.3-1-2.9-1-4.9
			c0-2.3,0.6-4.2,1.7-5.8c1.1-1.6,2.6-2.8,4.6-3.7c1.9-0.8,4.1-1.3,6.4-1.3c2.5,0,4.8,0.5,6.8,1.5s3.6,2.3,4.9,3.8l-4.3,4.3
			c-1.1-1.3-2.3-2.2-3.5-2.8c-1.2-0.6-2.6-0.9-4.1-0.9c-1.9,0-3.4,0.4-4.5,1.2c-1.1,0.8-1.6,1.9-1.6,3.3c0,1.2,0.3,2.1,1,2.9
			c0.7,0.7,1.5,1.3,2.6,1.8c1.1,0.5,2.3,1,3.6,1.4c1.3,0.4,2.6,0.9,3.9,1.5c1.3,0.6,2.5,1.3,3.6,2.1c1.1,0.9,2,2,2.6,3.4
			c0.7,1.4,1,3.1,1,5.1c0,3.5-1.2,6.2-3.7,8.3C246,105.2,242.7,106.2,238.5,106.2z"/>
		<path class="st2" d="M258.5,105.7V66.9h6.4v38.8H258.5z M262.9,91.1v-5.5h9.7c1.3,0,2.5-0.3,3.5-0.8c1-0.5,1.8-1.3,2.4-2.3
			c0.6-1,0.9-2.1,0.9-3.5c0-1.3-0.3-2.5-0.9-3.5c-0.6-1-1.4-1.7-2.4-2.3c-1-0.5-2.2-0.8-3.5-0.8h-9.7v-5.5h10c2.4,0,4.6,0.5,6.6,1.5
			c1.9,1,3.5,2.4,4.6,4.2c1.1,1.8,1.7,3.9,1.7,6.4c0,2.4-0.6,4.6-1.7,6.4c-1.1,1.8-2.7,3.2-4.6,4.2c-1.9,1-4.1,1.5-6.6,1.5H262.9z"
			/>
		<path class="st2" d="M285.5,105.7l15.9-38.8h4.4l15.8,38.8h-6.9l-12.4-31.4h2.3l-12.5,31.4H285.5z M293.4,98.2v-5.5h20.5v5.5
			H293.4z"/>
		<path class="st2" d="M326.8,105.7V66.9h6.4v38.8H326.8z M331.2,89.2V84h9.8c2,0,3.5-0.5,4.6-1.5c1.1-1,1.6-2.4,1.6-4.2
			c0-1.6-0.5-3-1.6-4.1c-1.1-1.1-2.6-1.7-4.5-1.7h-9.9v-5.5h10.1c2.4,0,4.6,0.5,6.4,1.5c1.8,1,3.3,2.3,4.3,4c1,1.7,1.5,3.6,1.5,5.7
			c0,2.3-0.5,4.2-1.5,5.9s-2.4,3-4.3,3.9c-1.8,0.9-4,1.4-6.4,1.4H331.2z M348.1,105.7l-13.6-16.8l5.9-2.2l15.7,19H348.1z"/>
		<path class="st2" d="M360.8,105.7V66.9h6.4v38.8H360.8z M365.2,89.2V84h9.8c2,0,3.5-0.5,4.6-1.5c1.1-1,1.6-2.4,1.6-4.2
			c0-1.6-0.5-3-1.6-4.1c-1.1-1.1-2.6-1.7-4.5-1.7h-9.9v-5.5h10.1c2.4,0,4.6,0.5,6.4,1.5c1.8,1,3.3,2.3,4.3,4c1,1.7,1.5,3.6,1.5,5.7
			c0,2.3-0.5,4.2-1.5,5.9s-2.4,3-4.3,3.9c-1.8,0.9-4,1.4-6.4,1.4H365.2z M382.1,105.7l-13.6-16.8l5.9-2.2l15.7,19H382.1z"/>
		<path class="st2" d="M449.8,105.7l-12.7-38.8h6.3l9.6,29.8h-1.7l9.4-29.8h4.4l9.4,29.8h-1.7l9.6-29.8h6.3l-12.7,38.8h-4.4
			L462,75.9h1.7l-9.4,29.8H449.8z"/>
	</g>
	<g>
		<g>
			<path class="st2" d="M30.1,106.2L17,66.3h6.4L33.3,97h-1.7l9.6-30.7h4.6L55.4,97h-1.7l9.9-30.7h6.4l-13.1,39.9h-4.6l-9.7-30.7
				h1.7l-9.7,30.7H30.1z"/>
		</g>
		<g>
			<path class="st2" d="M75.8,106.2V66.3h6.6v39.9H75.8z"/>
		</g>
		<g>
			<path class="st2" d="M91,106.2V66.3h6.6v39.9H91z M95.5,106.2v-6h20.9v6H95.5z"/>
		</g>
		<g>
			<path class="st2" d="M122.3,106.2V66.3h6.6v39.9H122.3z M126.8,106.2v-6h78.9l7,6H126.8z"/>
		</g>
	</g>
	<g>
		<g>
			<path class="st1" d="M197,51.7c-0.1-2.1-2-3.7-4.1-3.6s-3.7,2-3.6,4.1c0.1,1.2,0.7,2.2,1.5,2.8l0,22.8c0.3,4.6-4.1,6.4-4.1,6.4
				l-37,9.8c-0.6-0.7-1.6-1.2-2.6-1.1c-1.8,0.1-3.2,1.7-3.1,3.5c0.1,1.8,1.7,3.2,3.5,3.1c1.3-0.1,2.4-1,2.9-2.2l38-9.1
				c7.1-2.6,7-8.6,7-8.6V54.9C196.5,54.1,197.1,53,197,51.7z M147.4,97.7c-0.9,0-1.7-0.7-1.7-1.7s0.7-1.7,1.7-1.7s1.7,0.7,1.7,1.7
				S148.3,97.7,147.4,97.7z M193.2,53.6c-0.9,0-1.7-0.7-1.7-1.7s0.7-1.7,1.7-1.7s1.7,0.7,1.7,1.7S194.1,53.6,193.2,53.6z"/>
			<path class="st1" d="M191.8,39.2c-1.5,0-2.8,1-3.3,2.4c-3.5,1.1-6.9,2.2-10.1,3.9c-3,1.6-5.9,3.7-8,6.4c-2.1,2.7-3.1,6-4.2,9.1
				c-1.3,3.6-2.6,7.2-4,10.8c-0.3,0.7-3,6.6-3,8.6c-1.3,0.5-2.2,1.8-2.2,3.3c0,2,1.6,3.5,3.5,3.5s3.5-1.6,3.5-3.5
				c0-0.8-0.2-1.5-0.7-2c1.7-4.7,3.4-9.4,5-14.2c1.8-5.2,3-11,7.2-14.8c3.9-3.6,9-5.6,14-7.3c0.6,0.5,1.4,0.9,2.3,0.9
				c2,0,3.5-1.6,3.5-3.5S193.7,39.2,191.8,39.2z M160.4,85.5c-0.9,0-1.7-0.7-1.7-1.7c0-0.9,0.7-1.7,1.7-1.7s1.7,0.7,1.7,1.7
				C162.1,84.7,161.3,85.5,160.4,85.5z M191.8,44.4c-0.9,0-1.7-0.7-1.7-1.7s0.7-1.7,1.7-1.7s1.7,0.7,1.7,1.7S192.7,44.4,191.8,44.4z
				"/>
			<path class="st1" d="M176.7,56.1c-2,0-3.5,1.6-3.5,3.5c0,0.5,0.1,1,0.3,1.5l-3.7,18.8c-1,0.6-1.6,1.7-1.6,3c0,2,1.6,3.5,3.5,3.5
				s3.5-1.6,3.5-3.5c0-0.7-0.2-1.4-0.6-2l3.6-18c1.2-0.6,2-1.8,2-3.2C180.2,57.7,178.6,56.1,176.7,56.1z M171.7,84.6
				c-0.9,0-1.7-0.7-1.7-1.7s0.7-1.7,1.7-1.7s1.7,0.7,1.7,1.7S172.6,84.6,171.7,84.6z M176.7,61.3c-0.9,0-1.7-0.7-1.7-1.7
				s0.7-1.7,1.7-1.7s1.7,0.7,1.7,1.7S177.6,61.3,176.7,61.3z"/>
			<path class="st1" d="M185,53.5c-2,0-3.5,1.6-3.5,3.5c0,0.7,0.2,1.4,0.6,2l-3.4,17.3c-1,0.6-1.6,1.7-1.6,3c0,2,1.6,3.5,3.5,3.5
				s3.5-1.6,3.5-3.5c0-0.7-0.2-1.4-0.6-2l3.4-17.3c1-0.6,1.6-1.7,1.6-3C188.5,55.1,186.9,53.5,185,53.5z M180.6,80.9
				c-0.9,0-1.7-0.7-1.7-1.7s0.7-1.7,1.7-1.7s1.7,0.7,1.7,1.7S181.5,80.9,180.6,80.9z M185,58.8c-0.9,0-1.7-0.7-1.7-1.7
				s0.7-1.7,1.7-1.7s1.7,0.7,1.7,1.7S185.9,58.8,185,58.8z"/>
			<path class="st1" d="M121,156.1l9.9-20.9l-4-1.9l-9.9,20.9c0,0,0,0-0.1,0c-1.9,0.5-3,2.4-2.6,4.3c0.5,1.9,2.4,3,4.3,2.6
				s3-2.4,2.6-4.3C121.1,156.5,121.1,156.3,121,156.1z M117.8,159.3c-0.9,0-1.7-0.7-1.7-1.7s0.7-1.7,1.7-1.7s1.7,0.7,1.7,1.7
				S118.7,159.3,117.8,159.3z"/>
			<path class="st1" d="M230.9,20.8c0,0-4.9-8.6-17.7-10.5c0,0-16.6-2-24.7,9.3l24.6-0.1c0,0-2.7,1.1-2.7,2.7s-25.7,1.3-25.7,1.3
				l-2,4.1l27.9-0.1c0,0,2.7,3.4,6.3,2.5c3.7-0.9,4.8-4.3,4.8-4.3l16.6,3l-22,6.3c0,0,5.8,22.5,2.7,34c0,0-2.3,14.8-8.4,18.5
				c0,0-11.9,6.6-18.2,6.1c0,0,17-2.9,19.9-14.1c0,0,0.7-2.7,0.7-5.6l-0.1-30.7c0,0,1.5-8.7-8.4-11.1c0,0-17.4-3.2-23.4,0.1
				c0,0-2,1.3-3.2,6.3c0,0,6.8-3,11.5-3.4c4.7-0.4,17.1-0.8,18.4,7.3s0.4,33.4,0.4,33.4s-0.1,5.3-5.3,9c0,0,1-2.4,1.1-4.9l-0.2-31.3
				c1.4-0.8,2.4-2.3,2.4-4c0-2.5-2-4.6-4.6-4.6s-4.6,2-4.6,4.6c0,1.7,1,3.2,2.4,4l-0.3,31.9c0,0-0.5,5.6-7.9,8.9
				c-7.4,3.3-34.6,9.1-34.6,9.1l-33,7.6l15.8,0.7l-7.3,15.3c-1.9,0.1-3.3,1.6-3.3,3.5c0,2,1.6,3.5,3.5,3.5s3.5-1.6,3.5-3.5
				c0-0.7-0.2-1.3-0.5-1.8l8.8-17.4l3.8,0l-22,44.4c-1.6,0.3-2.9,1.7-2.9,3.5c0,2,1.6,3.5,3.5,3.5c2,0,3.5-1.6,3.5-3.5
				c0-0.6-0.1-1.1-0.4-1.6l23.2-46.9l3.9-0.2l-17.7,36.8c-1.5,0.4-2.6,1.8-2.6,3.4c0,2,1.6,3.5,3.5,3.5s3.5-1.6,3.5-3.5
				c0-0.5-0.1-1-0.3-1.4l18.9-39.3l4-0.6l-13.8,30c-1.6,0.3-2.9,1.7-2.9,3.5c0,2,1.6,3.5,3.5,3.5s3.5-1.6,3.5-3.5
				c0-0.7-0.2-1.3-0.5-1.8l14.7-31.4c0,0,14.5-1.9,16-2.3c1.5-0.4,15.1-2.3,20.5-6.2c5.3-3.9,10.8-4.3,13.6-13
				c2.8-8.7,4.2-14.3,4.1-23.6c-0.1-9.3-0.6-16.1-0.8-18.4s1.5-3.7,5.3-6c3.8-2.2,12.3-6.2,12.3-6.2L230.9,20.8z M215.9,27.5
				c-1.9,0-3.4-1.5-3.4-3.4s1.5-3.4,3.4-3.4s3.4,1.5,3.4,3.4S217.8,27.5,215.9,27.5z M201.5,42.7c1.1,0,2,0.9,2,2c0,1.1-0.9,2-2,2
				c-1.1,0-2-0.9-2-2C199.5,43.5,200.4,42.7,201.5,42.7z M132.4,127.3c-0.9,0-1.7-0.7-1.7-1.7c0-0.9,0.7-1.7,1.7-1.7
				s1.7,0.7,1.7,1.7C134,126.5,133.3,127.3,132.4,127.3z M126.8,156c-0.9,0-1.7-0.7-1.7-1.7s0.7-1.7,1.7-1.7s1.7,0.7,1.7,1.7
				S127.7,156,126.8,156z M140.3,147.5c-0.9,0-1.7-0.7-1.7-1.7c0-0.9,0.7-1.7,1.7-1.7s1.7,0.7,1.7,1.7
				C142,146.7,141.2,147.5,140.3,147.5z M153.3,139.5c-0.9,0-1.7-0.7-1.7-1.7s0.7-1.7,1.7-1.7s1.7,0.7,1.7,1.7
				S154.2,139.5,153.3,139.5z"/>
			<g>
				<g>
					<path class="st1" d="M413.7,66.1c-11.2,0-20.3,9.1-20.3,20.3c0,11.2,9.1,20.3,20.3,20.3c11.2,0,20.3-9.1,20.3-20.3
						C434,75.2,425,66.1,413.7,66.1z M413.7,99.4c-7.2,0-13-5.8-13-13s5.8-13,13-13s13,5.8,13,13S420.9,99.4,413.7,99.4z"/>
				</g>
			</g>
		</g>
	</g>
</g>
</svg>
