<?xml version="1.0" encoding="utf-8"?>
<!-- Generator: Adobe Illustrator 25.4.1, SVG Export Plug-In . SVG Version: 6.00 Build 0)  -->
<svg version="1.1" id="Layer_1" xmlns="http://www.w3.org/2000/svg" xmlns:xlink="http://www.w3.org/1999/xlink" x="0px" y="0px"
	 viewBox="0 0 505.6 169.8" style="enable-background:new 0 0 505.6 169.8;" xml:space="preserve">
<style type="text/css">
	.st0{fill:#333F48;}
	.st1{fill:#FC7632;}
	.st2{fill:#FFFFFF;}
</style>
<g>
	<g>
		<path class="st0" d="M224.9,117.8v-2.5h16.6v2.5H224.9z M231.8,135.7v-19.8h2.8v19.8H231.8z"/>
		<path class="st0" d="M244.8,135.7v-20.4h2.8v20.4H244.8z M246.7,117.8v-2.5h11.5v2.5H246.7z M246.7,126.5v-2.4h10.7v2.4H246.7z
			 M246.7,135.7v-2.5h11.7v2.5H246.7z"/>
		<path class="st0" d="M270.9,136c-1.5,0-2.8-0.3-4.1-0.8c-1.3-0.5-2.3-1.3-3.3-2.2c-0.9-1-1.6-2.1-2.2-3.3
			c-0.5-1.3-0.8-2.6-0.8-4.1c0-1.5,0.3-2.8,0.8-4.1s1.2-2.4,2.2-3.3c0.9-0.9,2-1.7,3.3-2.2c1.2-0.5,2.6-0.8,4.1-0.8
			c1.6,0,3,0.3,4.2,0.8c1.2,0.5,2.3,1.3,3.2,2.2l-1.9,1.9c-0.6-0.7-1.4-1.3-2.4-1.7c-0.9-0.4-2-0.6-3.2-0.6c-1.1,0-2.1,0.2-3,0.6
			s-1.7,0.9-2.3,1.6c-0.7,0.7-1.2,1.5-1.5,2.5c-0.4,1-0.5,2-0.5,3.1s0.2,2.2,0.5,3.1c0.4,1,0.9,1.8,1.5,2.5c0.7,0.7,1.4,1.2,2.3,1.6
			c0.9,0.4,1.9,0.6,3,0.6c1.3,0,2.4-0.2,3.3-0.6c0.9-0.4,1.7-1,2.4-1.7l1.9,1.9c-0.9,1-2,1.7-3.3,2.3
			C273.9,135.7,272.5,136,270.9,136z"/>
		<path class="st0" d="M281.8,135.7v-20.4h2.8v20.4H281.8z M283.7,126.4v-2.5h11.9v2.5H283.7z M295,135.7v-20.4h2.8v20.4H295z"/>
		<path class="st0" d="M302.5,135.7v-20.4h1.9l0.8,3.2v17.2H302.5z M316.6,135.7L304.1,119l0.4-3.7L317,132L316.6,135.7z
			 M316.6,135.7l-0.8-3v-17.3h2.8v20.4H316.6z"/>
		<path class="st0" d="M332.6,136c-1.4,0-2.8-0.3-4-0.8c-1.3-0.5-2.3-1.3-3.3-2.3s-1.7-2.1-2.2-3.4c-0.5-1.3-0.8-2.6-0.8-4.1
			c0-1.5,0.3-2.8,0.8-4.1c0.5-1.3,1.2-2.4,2.2-3.3c0.9-1,2-1.7,3.3-2.2c1.2-0.5,2.6-0.8,4-0.8s2.8,0.3,4,0.8
			c1.2,0.5,2.3,1.3,3.3,2.2s1.7,2.1,2.2,3.3c0.5,1.3,0.8,2.6,0.8,4.1c0,1.4-0.3,2.8-0.8,4.1c-0.5,1.3-1.3,2.4-2.2,3.3
			s-2,1.7-3.3,2.2C335.4,135.7,334,136,332.6,136z M332.5,133.3c1.5,0,2.8-0.3,3.9-1s2-1.6,2.6-2.8c0.6-1.2,1-2.5,1-4.1
			c0-1.1-0.2-2.2-0.6-3.1c-0.4-0.9-0.9-1.8-1.6-2.5c-0.7-0.7-1.4-1.2-2.3-1.6s-1.9-0.6-3-0.6c-1.4,0-2.7,0.3-3.8,1
			c-1.1,0.7-2,1.6-2.6,2.8c-0.6,1.2-1,2.5-1,4c0,1.1,0.2,2.2,0.5,3.2c0.4,1,0.9,1.8,1.5,2.5c0.7,0.7,1.4,1.2,2.3,1.6
			C330.5,133.1,331.5,133.3,332.5,133.3z"/>
		<path class="st0" d="M346.6,135.7v-20.4h2.8v20.4H346.6z M348.5,135.7v-2.5h10.9v2.5H348.5z"/>
		<path class="st0" d="M370.3,136c-1.4,0-2.8-0.3-4-0.8c-1.3-0.5-2.3-1.3-3.3-2.3s-1.7-2.1-2.2-3.4c-0.5-1.3-0.8-2.6-0.8-4.1
			c0-1.5,0.3-2.8,0.8-4.1c0.5-1.3,1.2-2.4,2.2-3.3c0.9-1,2-1.7,3.3-2.2c1.2-0.5,2.6-0.8,4-0.8s2.8,0.3,4,0.8
			c1.2,0.5,2.3,1.3,3.3,2.2s1.7,2.1,2.2,3.3c0.5,1.3,0.8,2.6,0.8,4.1c0,1.4-0.3,2.8-0.8,4.1c-0.5,1.3-1.3,2.4-2.2,3.3
			s-2,1.7-3.3,2.2C373.1,135.7,371.8,136,370.3,136z M370.3,133.3c1.5,0,2.8-0.3,3.9-1s2-1.6,2.6-2.8c0.6-1.2,1-2.5,1-4.1
			c0-1.1-0.2-2.2-0.6-3.1c-0.4-0.9-0.9-1.8-1.6-2.5c-0.7-0.7-1.4-1.2-2.3-1.6s-1.9-0.6-3-0.6c-1.4,0-2.7,0.3-3.8,1
			c-1.1,0.7-2,1.6-2.6,2.8c-0.6,1.2-1,2.5-1,4c0,1.1,0.2,2.2,0.5,3.2c0.4,1,0.9,1.8,1.5,2.5c0.7,0.7,1.4,1.2,2.3,1.6
			C368.2,133.1,369.2,133.3,370.3,133.3z"/>
		<path class="st0" d="M393.7,136c-1.4,0-2.8-0.3-4-0.8c-1.2-0.5-2.3-1.3-3.3-2.2c-0.9-1-1.7-2.1-2.2-3.3c-0.5-1.3-0.8-2.6-0.8-4.1
			c0-1.5,0.3-2.8,0.8-4.1c0.5-1.3,1.3-2.4,2.2-3.3s2-1.7,3.3-2.2s2.6-0.8,4.1-0.8c1.6,0,3.1,0.3,4.5,0.9c1.4,0.6,2.5,1.5,3.4,2.7
			l-1.9,1.9c-0.6-0.9-1.5-1.7-2.6-2.2s-2.2-0.7-3.5-0.7c-1.5,0-2.8,0.3-3.9,1c-1.1,0.7-2,1.6-2.7,2.8c-0.6,1.2-1,2.5-1,4
			c0,1.5,0.3,2.9,1,4.1c0.6,1.2,1.5,2.1,2.6,2.8c1.1,0.7,2.3,1,3.8,1c1.4,0,2.7-0.3,3.7-0.8c1-0.5,1.9-1.4,2.4-2.4
			c0.6-1.1,0.9-2.4,0.9-3.9l1.7,1.2h-8.8v-2.5h10v0.4c0,2.4-0.4,4.3-1.2,5.9s-2,2.8-3.5,3.6C397.3,135.6,395.6,136,393.7,136z"/>
		<path class="st0" d="M407.2,135.7v-20.4h2.8v20.4H407.2z"/>
		<path class="st0" d="M414.8,135.7v-20.4h2.8v20.4H414.8z M416.6,117.8v-2.5h11.5v2.5H416.6z M416.6,126.5v-2.4h10.7v2.4H416.6z
			 M416.6,135.7v-2.5h11.7v2.5H416.6z"/>
		<path class="st0" d="M437.2,136c-1.6,0-3-0.3-4.1-0.9c-1.1-0.6-2.1-1.4-3-2.6l1.9-1.9c0.6,0.9,1.4,1.6,2.2,2
			c0.8,0.5,1.9,0.7,3.1,0.7c1.2,0,2.2-0.3,2.9-0.8c0.7-0.5,1.1-1.3,1.1-2.2c0-0.8-0.2-1.4-0.5-1.8c-0.4-0.5-0.8-0.9-1.4-1.2
			c-0.6-0.3-1.2-0.6-2-0.8c-0.7-0.2-1.4-0.5-2.1-0.8c-0.7-0.3-1.3-0.6-1.9-1.1c-0.6-0.4-1.1-1-1.4-1.7c-0.4-0.7-0.5-1.5-0.5-2.6
			c0-1.2,0.3-2.1,0.8-2.9c0.6-0.8,1.3-1.4,2.3-1.9s2.1-0.7,3.3-0.7c1.3,0,2.5,0.3,3.6,0.8c1.1,0.5,1.9,1.2,2.6,2l-1.9,1.9
			c-0.6-0.7-1.3-1.2-2-1.6c-0.7-0.4-1.5-0.5-2.4-0.5c-1.1,0-2,0.2-2.6,0.7c-0.6,0.5-1,1.1-1,2c0,0.7,0.2,1.2,0.5,1.7
			c0.4,0.4,0.8,0.8,1.4,1.1c0.6,0.3,1.2,0.6,2,0.8c0.7,0.2,1.4,0.5,2.1,0.8c0.7,0.3,1.3,0.7,1.9,1.1c0.6,0.5,1.1,1,1.4,1.7
			c0.4,0.7,0.5,1.6,0.5,2.7c0,1.8-0.6,3.2-1.9,4.2C441,135.5,439.3,136,437.2,136z"/>
	</g>
	<g>
		<path class="st0" d="M239,105.5c-3.1,0-5.7-0.6-7.8-1.7c-2.1-1.1-4.1-2.7-5.8-4.9l4.3-4.3c1.1,1.6,2.3,2.8,3.8,3.6
			c1.5,0.9,3.4,1.3,5.6,1.3c2.1,0,3.8-0.4,5.1-1.3c1.3-0.9,1.9-2.1,1.9-3.7c0-1.3-0.3-2.3-1-3.2c-0.7-0.8-1.5-1.5-2.6-2
			c-1.1-0.5-2.3-1-3.6-1.4c-1.3-0.4-2.6-0.9-3.9-1.4c-1.3-0.5-2.5-1.2-3.6-2c-1.1-0.8-2-1.9-2.6-3.2c-0.7-1.3-1-2.9-1-4.9
			c0-2.3,0.6-4.2,1.7-5.8c1.1-1.6,2.6-2.8,4.6-3.7c1.9-0.8,4.1-1.3,6.4-1.3c2.5,0,4.8,0.5,6.8,1.5s3.6,2.3,4.9,3.8l-4.3,4.3
			c-1.1-1.3-2.3-2.2-3.5-2.8c-1.2-0.6-2.6-0.9-4.1-0.9c-1.9,0-3.4,0.4-4.5,1.2c-1.1,0.8-1.6,1.9-1.6,3.3c0,1.2,0.3,2.1,1,2.9
			c0.7,0.7,1.5,1.3,2.6,1.8c1.1,0.5,2.3,1,3.6,1.4c1.3,0.4,2.6,0.9,3.9,1.5c1.3,0.6,2.5,1.3,3.6,2.1c1.1,0.9,2,2,2.6,3.4
			c0.7,1.4,1,3.1,1,5.1c0,3.5-1.2,6.2-3.7,8.3C246.5,104.5,243.2,105.5,239,105.5z"/>
		<path class="st0" d="M259,104.9V66.2h6.4v38.8H259z M263.4,90.3v-5.5h9.7c1.3,0,2.5-0.3,3.5-0.8c1-0.5,1.8-1.3,2.4-2.3
			c0.6-1,0.9-2.1,0.9-3.5c0-1.3-0.3-2.5-0.9-3.5c-0.6-1-1.4-1.7-2.4-2.3c-1-0.5-2.2-0.8-3.5-0.8h-9.7v-5.5h10c2.4,0,4.6,0.5,6.6,1.5
			c1.9,1,3.5,2.4,4.6,4.2c1.1,1.8,1.7,3.9,1.7,6.4c0,2.4-0.6,4.6-1.7,6.4c-1.1,1.8-2.7,3.2-4.6,4.2c-1.9,1-4.1,1.5-6.6,1.5H263.4z"
			/>
		<path class="st0" d="M286.1,104.9L302,66.2h4.4l15.8,38.8h-6.9L303,73.5h2.3l-12.5,31.4H286.1z M293.9,97.4v-5.5h20.5v5.5H293.9z"
			/>
		<path class="st0" d="M327.4,104.9V66.2h6.4v38.8H327.4z M331.7,88.5v-5.3h9.8c2,0,3.5-0.5,4.6-1.5c1.1-1,1.6-2.4,1.6-4.2
			c0-1.6-0.5-3-1.6-4.1c-1.1-1.1-2.6-1.7-4.5-1.7h-9.9v-5.5h10.1c2.4,0,4.6,0.5,6.4,1.5c1.8,1,3.3,2.3,4.3,4c1,1.7,1.5,3.6,1.5,5.7
			c0,2.3-0.5,4.2-1.5,5.9s-2.4,3-4.3,3.9c-1.8,0.9-4,1.4-6.4,1.4H331.7z M348.6,104.9l-13.6-16.8l5.9-2.2l15.7,19H348.6z"/>
		<path class="st0" d="M361.4,104.9V66.2h6.4v38.8H361.4z M365.7,88.5v-5.3h9.8c2,0,3.5-0.5,4.6-1.5c1.1-1,1.6-2.4,1.6-4.2
			c0-1.6-0.5-3-1.6-4.1c-1.1-1.1-2.6-1.7-4.5-1.7h-9.9v-5.5h10.1c2.4,0,4.6,0.5,6.4,1.5c1.8,1,3.3,2.3,4.3,4c1,1.7,1.5,3.6,1.5,5.7
			c0,2.3-0.5,4.2-1.5,5.9s-2.4,3-4.3,3.9c-1.8,0.9-4,1.4-6.4,1.4H365.7z M382.6,104.9l-13.6-16.8l5.9-2.2l15.7,19H382.6z"/>
		<path class="st0" d="M450.4,104.9l-12.7-38.8h6.3l9.6,29.8h-1.7l9.4-29.8h4.4L475,96h-1.7l9.6-29.8h6.3l-12.7,38.8H472l-9.4-29.8
			h1.7l-9.4,29.8H450.4z"/>
	</g>
	<g>
		<g>
			<path class="st0" d="M30.6,105.5L17.5,65.6h6.4l9.9,30.7h-1.7l9.6-30.7h4.6l9.6,30.7h-1.7l9.9-30.7h6.4l-13.1,39.9h-4.6
				l-9.7-30.7h1.7l-9.7,30.7H30.6z"/>
		</g>
		<g>
			<path class="st0" d="M76.3,105.5V65.6h6.6v39.9H76.3z"/>
		</g>
		<g>
			<path class="st0" d="M91.5,105.5V65.6h6.6v39.9H91.5z M96,105.5v-6h20.9v6H96z"/>
		</g>
		<g>
			<path class="st0" d="M122.9,105.5V65.6h6.6v39.9H122.9z M127.4,105.5v-6h78.9l7,6H127.4z"/>
		</g>
	</g>
	<g>
		<g>
			<path class="st1" d="M197.5,50.9c-0.1-2.1-2-3.7-4.1-3.6s-3.7,2-3.6,4.1c0.1,1.2,0.7,2.2,1.5,2.8l0,22.8c0.3,4.6-4.1,6.4-4.1,6.4
				l-37,9.8c-0.6-0.7-1.6-1.2-2.6-1.1c-1.8,0.1-3.2,1.7-3.1,3.5c0.1,1.8,1.7,3.2,3.5,3.1c1.3-0.1,2.4-1,2.9-2.2l38-9.1
				c7.1-2.6,7-8.6,7-8.6V54.1C197,53.4,197.6,52.2,197.5,50.9z M148,97c-0.9,0-1.7-0.7-1.7-1.7s0.7-1.7,1.7-1.7s1.7,0.7,1.7,1.7
				S148.9,97,148,97z M193.7,52.8c-0.9,0-1.7-0.7-1.7-1.7s0.7-1.7,1.7-1.7s1.7,0.7,1.7,1.7S194.6,52.8,193.7,52.8z"/>
			<path class="st1" d="M192.3,38.4c-1.5,0-2.8,1-3.3,2.4c-3.5,1.1-6.9,2.2-10.1,3.9c-3,1.6-5.9,3.7-8,6.4c-2.1,2.7-3.1,6-4.2,9.1
				c-1.3,3.6-2.6,7.2-4,10.8c-0.3,0.7-3,6.6-3,8.6c-1.3,0.5-2.2,1.8-2.2,3.3c0,2,1.6,3.5,3.5,3.5s3.5-1.6,3.5-3.5
				c0-0.8-0.2-1.5-0.7-2c1.7-4.7,3.4-9.4,5-14.2c1.8-5.2,3-11,7.2-14.8c3.9-3.6,9-5.6,14-7.3c0.6,0.5,1.4,0.9,2.3,0.9
				c2,0,3.5-1.6,3.5-3.5S194.3,38.4,192.3,38.4z M161,84.7c-0.9,0-1.7-0.7-1.7-1.7c0-0.9,0.7-1.7,1.7-1.7s1.7,0.7,1.7,1.7
				C162.6,84,161.9,84.7,161,84.7z M192.3,43.7c-0.9,0-1.7-0.7-1.7-1.7s0.7-1.7,1.7-1.7s1.7,0.7,1.7,1.7S193.3,43.7,192.3,43.7z"/>
			<path class="st1" d="M177.2,55.4c-2,0-3.5,1.6-3.5,3.5c0,0.5,0.1,1,0.3,1.5l-3.7,18.8c-1,0.6-1.6,1.7-1.6,3c0,2,1.6,3.5,3.5,3.5
				s3.5-1.6,3.5-3.5c0-0.7-0.2-1.4-0.6-2l3.6-18c1.2-0.6,2-1.8,2-3.2C180.8,57,179.2,55.4,177.2,55.4z M172.2,83.8
				c-0.9,0-1.7-0.7-1.7-1.7s0.7-1.7,1.7-1.7s1.7,0.7,1.7,1.7S173.1,83.8,172.2,83.8z M177.2,60.6c-0.9,0-1.7-0.7-1.7-1.7
				s0.7-1.7,1.7-1.7s1.7,0.7,1.7,1.7S178.1,60.6,177.2,60.6z"/>
			<path class="st1" d="M185.5,52.8c-2,0-3.5,1.6-3.5,3.5c0,0.7,0.2,1.4,0.6,2l-3.4,17.3c-1,0.6-1.6,1.7-1.6,3c0,2,1.6,3.5,3.5,3.5
				s3.5-1.6,3.5-3.5c0-0.7-0.2-1.4-0.6-2l3.4-17.3c1-0.6,1.6-1.7,1.6-3C189.1,54.4,187.5,52.8,185.5,52.8z M181.2,80.1
				c-0.9,0-1.7-0.7-1.7-1.7s0.7-1.7,1.7-1.7s1.7,0.7,1.7,1.7S182.1,80.1,181.2,80.1z M185.5,58c-0.9,0-1.7-0.7-1.7-1.7
				s0.7-1.7,1.7-1.7s1.7,0.7,1.7,1.7S186.5,58,185.5,58z"/>
			<path class="st1" d="M121.5,155.3l9.9-20.9l-4-1.9l-9.9,20.9c0,0,0,0-0.1,0c-1.9,0.5-3,2.4-2.6,4.3c0.5,1.9,2.4,3,4.3,2.6
				s3-2.4,2.6-4.3C121.7,155.8,121.6,155.5,121.5,155.3z M118.3,158.5c-0.9,0-1.7-0.7-1.7-1.7s0.7-1.7,1.7-1.7s1.7,0.7,1.7,1.7
				S119.2,158.5,118.3,158.5z"/>
			<path class="st1" d="M231.5,20c0,0-4.9-8.6-17.7-10.5c0,0-16.6-2-24.7,9.3l24.6-0.1c0,0-2.7,1.1-2.7,2.7s-25.7,1.3-25.7,1.3
				l-2,4.1l27.9-0.1c0,0,2.7,3.4,6.3,2.5c3.7-0.9,4.8-4.3,4.8-4.3l16.6,3l-22,6.3c0,0,5.8,22.5,2.7,34c0,0-2.3,14.8-8.4,18.5
				c0,0-11.9,6.6-18.2,6.1c0,0,17-2.9,19.9-14.1c0,0,0.7-2.7,0.7-5.6l-0.1-30.7c0,0,1.5-8.7-8.4-11.1c0,0-17.4-3.2-23.4,0.1
				c0,0-2,1.3-3.2,6.3c0,0,6.8-3,11.5-3.4c4.7-0.4,17.1-0.8,18.4,7.3s0.4,33.4,0.4,33.4s-0.1,5.3-5.3,9c0,0,1-2.4,1.1-4.9l-0.2-31.3
				c1.4-0.8,2.4-2.3,2.4-4c0-2.5-2-4.6-4.6-4.6s-4.6,2-4.6,4.6c0,1.7,1,3.2,2.4,4l-0.3,31.9c0,0-0.5,5.6-7.9,8.9
				c-7.4,3.3-34.6,9.1-34.6,9.1l-33,7.6L140,106l-7.3,15.3c-1.9,0.1-3.3,1.6-3.3,3.5c0,2,1.6,3.5,3.5,3.5s3.5-1.6,3.5-3.5
				c0-0.7-0.2-1.3-0.5-1.8l8.8-17.4l3.8,0l-22,44.4c-1.6,0.3-2.9,1.7-2.9,3.5c0,2,1.6,3.5,3.5,3.5s3.5-1.6,3.5-3.5
				c0-0.6-0.1-1.1-0.4-1.6l23.2-46.9l3.9-0.2l-17.7,36.8c-1.5,0.4-2.6,1.8-2.6,3.4c0,2,1.6,3.5,3.5,3.5s3.5-1.6,3.5-3.5
				c0-0.5-0.1-1-0.3-1.4l18.9-39.3l4-0.6l-13.8,30c-1.6,0.3-2.9,1.7-2.9,3.5c0,2,1.6,3.5,3.5,3.5s3.5-1.6,3.5-3.5
				c0-0.7-0.2-1.3-0.5-1.8l14.7-31.4c0,0,14.5-1.9,16-2.3c1.5-0.4,15.1-2.3,20.5-6.2c5.3-3.9,10.8-4.3,13.6-13
				c2.8-8.7,4.2-14.3,4.1-23.6c-0.1-9.3-0.6-16.1-0.8-18.4s1.5-3.7,5.3-6c3.8-2.2,12.3-6.2,12.3-6.2L231.5,20z M216.5,26.7
				c-1.9,0-3.4-1.5-3.4-3.4s1.5-3.4,3.4-3.4s3.4,1.5,3.4,3.4S218.4,26.7,216.5,26.7z M202.1,41.9c1.1,0,2,0.9,2,2c0,1.1-0.9,2-2,2
				c-1.1,0-2-0.9-2-2C200.1,42.8,201,41.9,202.1,41.9z M132.9,126.5c-0.9,0-1.7-0.7-1.7-1.7c0-0.9,0.7-1.7,1.7-1.7s1.7,0.7,1.7,1.7
				C134.6,125.8,133.8,126.5,132.9,126.5z M127.3,155.2c-0.9,0-1.7-0.7-1.7-1.7s0.7-1.7,1.7-1.7s1.7,0.7,1.7,1.7
				S128.3,155.2,127.3,155.2z M140.8,146.7c-0.9,0-1.7-0.7-1.7-1.7c0-0.9,0.7-1.7,1.7-1.7s1.7,0.7,1.7,1.7
				C142.5,146,141.8,146.7,140.8,146.7z M153.8,138.8c-0.9,0-1.7-0.7-1.7-1.7s0.7-1.7,1.7-1.7s1.7,0.7,1.7,1.7
				S154.8,138.8,153.8,138.8z"/>
			<g>
				<g>
					<path class="st1" d="M414.3,65.4c-11.2,0-20.3,9.1-20.3,20.3c0,11.2,9.1,20.3,20.3,20.3c11.2,0,20.3-9.1,20.3-20.3
						C434.6,74.5,425.5,65.4,414.3,65.4z M414.3,98.7c-7.2,0-13-5.8-13-13s5.8-13,13-13s13,5.8,13,13S421.5,98.7,414.3,98.7z"/>
				</g>
			</g>
		</g>
	</g>
</g>
</svg>
