<svg width="201" height="80" viewBox="0 0 201 80" fill="none" xmlns="http://www.w3.org/2000/svg">
<g clip-path="url(#clip0_627_2508)">
<path d="M36.5131 53.1684L36.8308 51.2605L29.334 48.5631L36.5131 53.1684Z" fill="#000610"/>
<path d="M38.8646 39.55L39.0552 38.0368L36.8315 38.8263V38.7605L38.2292 30.0763L36.8315 30.5368L35.1797 40.5368L38.8646 39.55Z" fill="#000610"/>
<path d="M36.6411 2.31311L36.1328 5.01048L43.7567 8.76048L36.6411 2.31311Z" fill="#000610"/>
<path d="M66.0571 29.0237L59.7039 23.1685L56.6543 24.1814L66.0571 29.0237Z" fill="#000610"/>
<path d="M56.3353 24.2868L56.6529 24.1813M56.6529 24.1813L59.7025 23.1684L66.0557 29.0236L56.6529 24.1813ZM36.8308 51.2605L36.5131 53.1684L29.334 48.5631L36.8308 51.2605ZM39.0544 38.0368L38.8638 39.5499L35.179 40.5368L36.8308 30.5368L38.2285 30.0763L36.8308 38.7605V38.8263L39.0544 38.0368ZM36.132 5.01048L36.6402 2.31311L43.7558 8.76048L36.132 5.01048Z" stroke="#000610"/>
<path d="M36.6953 2.23686L45.4628 0.131592L68.0168 20.5263L66.5555 29.3421L36.8859 38.6842L38.2836 30.0658L56.581 24.2105L66.4733 29.2999L36.6953 2.23686Z" fill="#225CBF"/>
<path d="M22.209 44.079L28.8164 48.2895L36.4402 53.2237L27.2916 57.4342L22.209 44.079Z" fill="#225CBF"/>
<path d="M66.5546 29.3421L68.0158 20.5263L45.4618 0.131592L36.6944 2.23686L66.4724 29.2999M66.5546 29.3421L36.885 38.6842L38.2827 30.0658L56.58 24.2105L66.4724 29.2999M66.5546 29.3421L66.4724 29.2999M36.6308 2.23686L28.8164 48.1579V48.2895M28.8164 48.2895L22.209 44.079L27.2916 57.4342L36.4402 53.2237L28.8164 48.2895Z" stroke="#225CBF"/>
<path d="M44.0016 8.94737L36.1871 5.0658L28.8809 48.1579V48.2895L29.0079 48.3553L36.8224 51.1842L38.7919 39.6053L35.107 40.5921L36.8224 30.4605L40.5708 29.2763L44.0016 8.94737Z" fill="#225CBF" stroke="#225CBF"/>
<path d="M105.317 51.5855V54.9578H108.867V56.0434H105.317V59.517H109.286V60.6026H104.045V50.4999H109.286V51.5855H105.317ZM113.182 59.5315H116.592V60.6026H111.91V50.5144H113.182V59.5315ZM119.914 51.5855V54.9578H123.464V56.0434H119.914V59.517H123.883V60.6026H118.642V50.4999H123.883V51.5855H119.914ZM126.031 55.5513C126.031 54.567 126.246 53.6842 126.674 52.9026C127.103 52.1114 127.685 51.4938 128.421 51.0499C129.167 50.6061 129.992 50.3842 130.895 50.3842C131.957 50.3842 132.885 50.6495 133.676 51.1802C134.469 51.7109 135.046 52.4635 135.41 53.4381H133.886C133.617 52.8302 133.225 52.3622 132.712 52.0342C132.209 51.7061 131.604 51.542 130.895 51.542C130.215 51.542 129.605 51.7061 129.064 52.0342C128.524 52.3622 128.1 52.8302 127.792 53.4381C127.485 54.0364 127.331 54.7407 127.331 55.5513C127.331 56.3522 127.485 57.0565 127.792 57.6644C128.1 58.2627 128.524 58.7259 129.064 59.0539C129.605 59.3819 130.215 59.546 130.895 59.546C131.604 59.546 132.209 59.3868 132.712 59.0684C133.225 58.7403 133.617 58.2723 133.886 57.6644H135.41C135.046 58.6293 134.469 59.3772 133.676 59.9078C132.885 60.4289 131.957 60.6894 130.895 60.6894C129.992 60.6894 129.167 60.4723 128.421 60.0381C127.685 59.5943 127.103 58.9815 126.674 58.1999C126.246 57.4184 126.031 56.5355 126.031 55.5513ZM143.998 50.5144V51.5855H141.342V60.6026H140.07V51.5855H137.401V50.5144H143.998ZM151.393 60.6026L149.073 56.4776H147.535V60.6026H146.263V50.5144H149.408C150.144 50.5144 150.764 50.6447 151.267 50.9052C151.779 51.1657 152.162 51.518 152.413 51.9618C152.665 52.4056 152.791 52.9122 152.791 53.4815C152.791 54.1763 152.595 54.789 152.204 55.3197C151.821 55.8503 151.243 56.2026 150.471 56.3763L152.917 60.6026H151.393ZM147.535 55.421H149.408C150.097 55.421 150.614 55.2473 150.96 54.8999C151.304 54.543 151.477 54.0701 151.477 53.4815C151.477 52.8832 151.304 52.4201 150.96 52.092C150.624 51.764 150.107 51.5999 149.408 51.5999H147.535V55.421ZM159.882 60.7039C158.979 60.7039 158.154 60.4868 157.408 60.0526C156.662 59.6088 156.072 58.996 155.633 58.2144C155.205 57.4232 154.99 56.5355 154.99 55.5513C154.99 54.567 155.205 53.6842 155.633 52.9026C156.072 52.1114 156.662 51.4986 157.408 51.0644C158.154 50.6206 158.979 50.3986 159.882 50.3986C160.796 50.3986 161.624 50.6206 162.37 51.0644C163.116 51.4986 163.703 52.1065 164.131 52.8881C164.56 53.6697 164.774 54.5574 164.774 55.5513C164.774 56.5451 164.56 57.4328 164.131 58.2144C163.703 58.996 163.116 59.6088 162.37 60.0526C161.624 60.4868 160.796 60.7039 159.882 60.7039ZM159.882 59.5605C160.562 59.5605 161.173 59.3964 161.713 59.0684C162.263 58.7403 162.692 58.2723 162.999 57.6644C163.316 57.0565 163.474 56.3522 163.474 55.5513C163.474 54.7407 163.316 54.0364 162.999 53.4381C162.692 52.8302 162.267 52.3622 161.727 52.0342C161.187 51.7061 160.572 51.542 159.882 51.542C159.192 51.542 158.577 51.7061 158.037 52.0342C157.497 52.3622 157.068 52.8302 156.751 53.4381C156.444 54.0364 156.29 54.7407 156.29 55.5513C156.29 56.3522 156.444 57.0565 156.751 57.6644C157.068 58.2723 157.497 58.7403 158.037 59.0684C158.587 59.3964 159.202 59.5605 159.882 59.5605ZM174.811 60.6026H173.539L168.424 52.5697V60.6026H167.152V50.4999H168.424L173.539 58.5184V50.4999H174.811V60.6026ZM178.951 50.5144V60.6026H177.679V50.5144H178.951ZM181.342 55.5513C181.342 54.567 181.557 53.6842 181.985 52.9026C182.413 52.1114 182.997 51.4938 183.732 51.0499C184.478 50.6061 185.303 50.3842 186.206 50.3842C187.269 50.3842 188.196 50.6495 188.988 51.1802C189.779 51.7109 190.358 52.4635 190.721 53.4381H189.197C188.927 52.8302 188.535 52.3622 188.023 52.0342C187.52 51.7061 186.914 51.542 186.206 51.542C185.526 51.542 184.915 51.7061 184.375 52.0342C183.835 52.3622 183.411 52.8302 183.103 53.4381C182.796 54.0364 182.642 54.7407 182.642 55.5513C182.642 56.3522 182.796 57.0565 183.103 57.6644C183.411 58.2627 183.835 58.7259 184.375 59.0539C184.915 59.3819 185.526 59.546 186.206 59.546C186.914 59.546 187.52 59.3868 188.023 59.0684C188.535 58.7403 188.927 58.2723 189.197 57.6644H190.721C190.358 58.6293 189.779 59.3772 188.988 59.9078C188.196 60.4289 187.269 60.6894 186.206 60.6894C185.303 60.6894 184.478 60.4723 183.732 60.0381C182.997 59.5943 182.413 58.9815 181.985 58.1999C181.557 57.4184 181.342 56.5355 181.342 55.5513ZM196.402 60.7039C195.759 60.7039 195.181 60.5881 194.669 60.3565C194.166 60.1153 193.769 59.7872 193.481 59.3723C193.192 58.9477 193.042 58.4605 193.034 57.9105H194.389C194.436 58.3832 194.622 58.7838 194.948 59.1118C195.284 59.4302 195.768 59.5894 196.402 59.5894C197.008 59.5894 197.483 59.4351 197.828 59.1263C198.182 58.8078 198.359 58.4026 198.359 57.9105C198.359 57.5245 198.256 57.2109 198.051 56.9697C197.847 56.7285 197.59 56.5451 197.283 56.4197C196.975 56.2943 196.561 56.1592 196.039 56.0144C195.396 55.8407 194.878 55.667 194.487 55.4934C194.105 55.3197 193.774 55.0495 193.495 54.6828C193.224 54.3065 193.089 53.8048 193.089 53.1776C193.089 52.6276 193.224 52.1403 193.495 51.7157C193.765 51.2911 194.143 50.9631 194.627 50.7315C195.121 50.4999 195.684 50.3842 196.318 50.3842C197.232 50.3842 197.976 50.6206 198.554 51.0934C199.142 51.5661 199.472 52.1934 199.547 52.9749H198.149C198.102 52.589 197.906 52.2513 197.562 51.9618C197.218 51.6627 196.76 51.5131 196.192 51.5131C195.661 51.5131 195.228 51.6578 194.892 51.9473C194.557 52.2272 194.389 52.6227 194.389 53.1342C194.389 53.5009 194.487 53.7999 194.683 54.0315C194.887 54.2631 195.135 54.4417 195.424 54.567C195.722 54.6828 196.136 54.818 196.668 54.9723C197.311 55.1556 197.828 55.339 198.219 55.5223C198.61 55.696 198.946 55.971 199.225 56.3473C199.505 56.714 199.645 57.2157 199.645 57.8526C199.645 58.3447 199.519 58.8078 199.267 59.242C199.016 59.6763 198.643 60.0285 198.149 60.2986C197.655 60.5688 197.073 60.7039 196.402 60.7039Z" fill="#225CBF"/>
<path fill-rule="evenodd" clip-rule="evenodd" d="M73.4102 79.9093L88.3059 3.89209L70.3492 74.8601L0.554688 61.7L69.3416 78.8426L69.3206 78.9256L73.4102 79.9093Z" fill="#225CBF"/>
<path d="M119.383 26.1053C119.383 28.0895 118.723 29.7431 117.401 31.0659C116.102 32.3659 114.109 33.0158 111.422 33.0158H106.995V42.9711H103.988V19.1264H111.422C114.02 19.1264 115.992 19.7764 117.335 21.0764C118.701 22.3764 119.383 24.0527 119.383 26.1053ZM111.422 30.4501C113.095 30.4501 114.329 30.0737 115.122 29.3211C115.915 28.5685 116.311 27.4965 116.311 26.1053C116.311 23.1632 114.681 21.6922 111.422 21.6922H106.995V30.4501H111.422ZM121.6 33.529C121.6 31.6132 121.975 29.9369 122.723 28.5001C123.472 27.0405 124.497 25.9115 125.796 25.1132C127.117 24.3149 128.582 23.9158 130.19 23.9158C131.776 23.9158 133.152 24.2694 134.32 24.9764C135.486 25.6834 136.357 26.5728 136.93 27.6448V24.2237H139.969V42.9711H136.93V39.4816C136.335 40.5764 135.443 41.4886 134.254 42.2185C133.086 42.9255 131.72 43.279 130.157 43.279C128.549 43.279 127.095 42.8685 125.796 42.0474C124.497 41.2264 123.472 40.0747 122.723 38.5922C121.975 37.1097 121.6 35.422 121.6 33.529ZM136.93 33.5632C136.93 32.1491 136.654 30.9176 136.104 29.8685C135.552 28.8194 134.804 28.0211 133.857 27.4737C132.932 26.9036 131.908 26.6185 130.785 26.6185C129.662 26.6185 128.638 26.8922 127.713 27.4395C126.787 27.9869 126.049 28.7852 125.499 29.8343C124.948 30.8834 124.673 32.1149 124.673 33.529C124.673 34.9659 124.948 36.2202 125.499 37.2922C126.049 38.3412 126.787 39.151 127.713 39.7211C128.638 40.2685 129.662 40.5422 130.785 40.5422C131.908 40.5422 132.932 40.2685 133.857 39.7211C134.804 39.151 135.552 38.3412 136.104 37.2922C136.654 36.2202 136.93 34.9773 136.93 33.5632ZM147.659 27.2685C148.188 26.1965 148.936 25.3641 149.906 24.7711C150.897 24.1781 152.098 23.8816 153.507 23.8816V27.0974H152.714C149.344 27.0974 147.659 28.9905 147.659 32.7764V42.9711H144.653V24.2237H147.659V27.2685ZM155.457 33.529C155.457 31.6132 155.832 29.9369 156.58 28.5001C157.33 27.0405 158.354 25.9115 159.653 25.1132C160.974 24.3149 162.439 23.9158 164.047 23.9158C165.632 23.9158 167.01 24.2694 168.176 24.9764C169.344 25.6834 170.214 26.5728 170.786 27.6448V24.2237H173.826V42.9711H170.786V39.4816C170.192 40.5764 169.3 41.4886 168.11 42.2185C166.944 42.9255 165.578 43.279 164.014 43.279C162.406 43.279 160.953 42.8685 159.653 42.0474C158.354 41.2264 157.33 40.0747 156.58 38.5922C155.832 37.1097 155.457 35.422 155.457 33.529ZM170.786 33.5632C170.786 32.1491 170.512 30.9176 169.96 29.8685C169.41 28.8194 168.662 28.0211 167.714 27.4737C166.789 26.9036 165.765 26.6185 164.641 26.6185C163.518 26.6185 162.494 26.8922 161.569 27.4395C160.644 27.9869 159.907 28.7852 159.355 29.8343C158.805 30.8834 158.53 32.1149 158.53 33.529C158.53 34.9659 158.805 36.2202 159.355 37.2922C159.907 38.3412 160.644 39.151 161.569 39.7211C162.494 40.2685 163.518 40.5422 164.641 40.5422C165.765 40.5422 166.789 40.2685 167.714 39.7211C168.662 39.151 169.41 38.3412 169.96 37.2922C170.512 36.2202 170.786 34.9773 170.786 33.5632ZM199.785 18.9553L191.559 42.9711H184.489L176.263 18.9553H182.275L188.024 37.0869L193.805 18.9553H199.785Z" fill="#225CBF"/>
</g>
<defs>
<clipPath id="clip0_627_2508">
<rect width="200" height="80" fill="white" transform="translate(0.554688)"/>
</clipPath>
</defs>
</svg>
